# xmcd
#
# Track frame offsets: 
#        182
#        18257
#        38697
#        51510
#        69910
#        88242
#        109890
#        127967
#        144992
#        158127
#        168915
#        182555
#
# Disc length: 2563 seconds
#
# Revision: 4
# Processed by: cddbd v1.5.1PL2 Copyright (c) Steve Scherf et al.
# Submitted via: ExactAudioCopy v0.90b4
#
DISCID=980a010c
DTITLE=Kasey Chambers - The Captain
DYEAR=1999
DGENRE=Rock
TTITLE0=Cry Like A Baby
TTITLE1=The Captain
TTITLE2=This Flower
TTITLE3=You Got the Car
TTITLE4=These Pines
TTITLE5=Don't Talk Back
TTITLE6=Southern Kind of Life
TTITLE7=Mr Baylis
TTITLE8=The Hard Way
TTITLE9=Last Hard Bible
TTITLE10=Don't Go
TTITLE11=We're All Gonna Die Someday
EXTD=Modified the genre to 'Country' from 'country' and added the year
EXTD=that the cd was recorded.\n\n- Jeff Morton
EXTT0=
EXTT1=
EXTT2=
EXTT3=
EXTT4=
EXTT5=
EXTT6=
EXTT7=
EXTT8=
EXTT9=
EXTT10=
EXTT11=
PLAYORDER=
